<svg xmlns="http://www.w3.org/2000/svg" width="60" height="30" viewBox="0 0 114 30" fill="red">
  <path fill-rule="evenodd" clip-rule="evenodd" d="M45.979 29.1556H45.9411H44.1818L37.6709 11.1868H41.9198L45.9601 22.3403L50.0003 11.1868H54.2493L47.7384 29.1603H45.979V29.1556Z" />
  <path fill-rule="evenodd" clip-rule="evenodd" d="M63.0318 29.1556H62.9939H61.2345L54.7236 11.1868H58.9726L63.0128 22.3403L67.0531 11.1868H71.302L64.7911 29.1603H63.0318V29.1556Z" />
  <path d="M14.9471 0V12.6786C13.3869 11.5229 11.4616 10.8267 9.37512 10.8267C4.20624 10.8267 0 15.0277 0 20.19C0 25.3524 4.20624 29.5533 9.37512 29.5533C11.4616 29.5533 13.3869 28.8618 14.9471 27.7015V29.1602H18.7502V0H14.9471ZM9.37512 25.7549C6.30225 25.7549 3.80316 23.259 3.80316 20.19C3.80316 17.121 6.30225 14.6251 9.37512 14.6251C12.448 14.6251 14.9471 17.121 14.9471 20.19C14.9471 23.259 12.448 25.7549 9.37512 25.7549Z" />
  <path d="M110.197 11.7123V12.7306C108.637 11.575 106.712 10.8788 104.625 10.8788C99.4562 10.8788 95.25 15.0797 95.25 20.2421C95.25 25.4044 99.4562 29.6053 104.625 29.6053C106.712 29.6053 108.637 28.9139 110.197 27.7535V29.2122H114V11.7123H110.197ZM104.625 25.807C101.552 25.807 99.0532 23.3111 99.0532 20.2421C99.0532 17.1731 101.552 14.6771 104.625 14.6771C107.698 14.6771 110.197 17.1731 110.197 20.2421C110.197 23.3111 107.698 25.807 104.625 25.807Z" />
  <path d="M93.8891 0.052124H90.0859V29.2076H93.8891V0.052124Z" />
  <path d="M75.3513 28.6391C72.2453 27.1283 70.0924 23.9503 70.0734 20.2704C70.0592 17.7697 71.0218 15.4111 72.7811 13.6351C74.5404 11.8591 76.8925 10.8692 79.3964 10.855C81.9002 10.8408 84.2617 11.8022 86.04 13.5593C87.8183 15.3164 88.8094 17.6655 88.8236 20.1662L88.8331 22.0654L77.1865 22.1317L77.1676 18.3333L84.6791 18.2907C84.3993 17.5377 83.9583 16.8462 83.3655 16.2636C82.308 15.217 80.9043 14.6486 79.4153 14.6581C77.9263 14.6676 76.5321 15.2549 75.4841 16.311C74.4361 17.3672 73.8671 18.769 73.8766 20.2562C73.8955 23.3252 76.4088 25.8069 79.477 25.788C80.966 25.7785 82.3602 25.1912 83.4082 24.1351L86.1112 26.8062C84.3518 28.5823 81.9998 29.5721 79.4959 29.5863C78.0117 29.5863 76.6033 29.25 75.3513 28.6391Z" />
  <path d="M25.408 28.6391C22.3019 27.1283 20.149 23.9503 20.13 20.2704C20.1158 17.7697 21.0785 15.4111 22.8378 13.6351C24.5971 11.8591 26.9492 10.8692 29.453 10.855C31.9568 10.8408 34.3184 11.8022 36.0967 13.5593C37.875 15.3164 38.8661 17.6655 38.8803 20.1662L38.8898 22.0654L27.2432 22.1317L27.2242 18.3333L34.7357 18.2907C34.4559 17.5377 34.0149 16.8462 33.4221 16.2636C32.3646 15.217 30.961 14.6486 29.472 14.6581C27.9829 14.6676 26.5888 15.2549 25.5408 16.311C24.4928 17.3672 23.9237 18.769 23.9332 20.2562C23.9522 23.3252 26.4655 25.8069 29.5336 25.788C31.0226 25.7785 32.4168 25.1912 33.4648 24.1351L36.1678 26.8062C34.4085 28.5823 32.0564 29.5721 29.5526 29.5863C28.073 29.5863 26.6646 29.25 25.408 28.6391Z"/>
</svg>